<?xml version="1.0" encoding="utf-8"?>
<svg width="600" height="600" viewBox="0 0 600 600" xmlns="http://www.w3.org/2000/svg">
  <rect fill="#1456b7" width="600" height="600" x="0" y="0" rx="90" ry="90"/>
  <path fill="#fff" d="m 91.888379,538.48615 v -47.97352 q 25.173911,-24.86585 38.729101,-52.24342 13.55517,-27.62871 20.74773,-63.54607 7.19254,-35.91734 7.19254,-73.84404 0,-39.6849 -6.91592,-74.34639 -6.63927,-34.91266 -20.47107,-63.04374 -13.55519,-28.38224 -39.282381,-54.00159 V 61.513853 q 47.858101,23.35883 80.501191,61.787867 32.64309,38.1779 50.34781,84.64438 17.70473,46.21533 17.70473,92.17948 0,45.46182 -17.42809,90.92363 -17.15145,45.46182 -48.41137,83.38852 -31.2599,37.92671 -82.714271,64.04842 z"/>
  <path fill="#fff" d="m 508.11162,61.513853 v 47.973527 q -25.72719,25.61935 -39.55901,54.00159 -13.55518,28.38224 -20.4711,63.2949 -6.63926,34.91267 -6.63926,73.09055 0,38.68022 6.63926,73.59288 6.91592,34.66149 20.4711,63.04373 13.83182,28.38224 39.55901,54.0016 v 47.97352 q -33.74965,-16.57722 -48.41137,-29.13574 -14.38509,-12.30736 -28.21691,-27.87991 -35.13282,-39.93606 -53.66746,-87.65841 -18.25799,-47.72236 -18.25799,-93.93767 0,-59.27619 29.04681,-117.79886 20.74774,-41.94542 52.00763,-73.59288 12.17201,-12.307333 25.17391,-22.102968 13.00191,-10.046814 42.32538,-24.865859 z"/>
</svg>
